<?xml version="1.0" encoding="iso-8859-1"?>
<!-- Uploaded to: SVG Repo, www.svgrepo.com, Generator: SVG Repo Mixer Tools -->
<svg height="800px" width="800px" version="1.1" id="Layer_1" xmlns="http://www.w3.org/2000/svg" xmlns:xlink="http://www.w3.org/1999/xlink" 
	 viewBox="0 0 512 512" xml:space="preserve">
<circle style="fill:#FFDC64;" cx="256" cy="256" r="256"/>
<path style="fill:#FFC850;" d="M300.811,444.744C177.337,434.622,77.378,334.663,67.256,211.189
	c-1.969-24.007-0.614-47.387,3.648-69.734c4.109-21.542-25.447-32.718-36.46-13.754c-25.003,43.06-37.81,94.076-33.679,148.337
	c9.487,124.649,110.548,225.71,235.198,235.198c54.26,4.13,105.278-8.677,148.338-33.681c18.964-11.013,7.788-40.569-13.754-36.46
	C348.198,445.358,324.819,446.712,300.811,444.744z"/>
<g>
	<path style="fill:#AF7332;" d="M132.741,355.212c0,15.234,7.208,29.698,19.646,38.496c29.297,20.721,64.996,32.959,103.614,32.959
		s74.317-12.238,103.614-32.959c12.437-8.796,19.646-23.26,19.646-38.496v-23.36c0-10.474-8.49-18.963-18.963-18.963H151.704
		c-10.473,0-18.963,8.489-18.963,18.963V355.212z"/>
	<path style="fill:#AF7332;" d="M161.185,246.519L161.185,246.519c-15.71,0-28.444-12.735-28.444-28.444V189.63
		c0-15.71,12.735-28.444,28.444-28.444l0,0c15.71,0,28.444,12.735,28.444,28.444v28.444
		C189.63,233.784,176.895,246.519,161.185,246.519z"/>
	<path style="fill:#AF7332;" d="M350.815,246.519L350.815,246.519c-15.71,0-28.444-12.735-28.444-28.444V189.63
		c0-15.71,12.735-28.444,28.444-28.444l0,0c15.71,0,28.444,12.735,28.444,28.444v28.444
		C379.259,233.784,366.524,246.519,350.815,246.519z"/>
</g>
<path style="fill:#FFFFFF;" d="M369.778,350.815H142.222c-5.236,0-9.481-4.245-9.481-9.481v-9.481
	c0-10.474,8.489-18.963,18.963-18.963h208.593c10.473,0,18.963,8.489,18.963,18.963v9.481
	C379.259,346.569,375.014,350.815,369.778,350.815z"/>
</svg>